<?xml version="1.0" encoding="UTF-8" standalone="no"?>
<svg width="96px" height="96px" viewBox="0 0 96 96" version="1.1" xmlns="http://www.w3.org/2000/svg" xmlns:xlink="http://www.w3.org/1999/xlink" xmlns:sketch="http://www.bohemiancoding.com/sketch/ns">
    <!-- Generator: Sketch 3.1.1 (8761) - http://www.bohemiancoding.com/sketch -->
    <title>fb</title>
    <desc>Created with Sketch.</desc>
    <defs></defs>
    <g id="Page-1" stroke="none" stroke-width="1" fill="none" fill-rule="evenodd" sketch:type="MSPage">
        <path d="M59.37,33.17 L52.15,33.17 C51.3,33.17 50.35,34.29 50.35,35.79 L50.35,41 L59.37,41 L59.37,48.43 L50.35,48.43 L50.35,70.73 L41.83,70.73 L41.83,48.43 L34.11,48.43 L34.11,41 L41.83,41 L41.83,36.63 C41.83,30.36 46.18,25.26 52.15,25.26 L59.37,25.26 L59.37,33.17 L59.37,33.17 Z M48,0 C21.49,0 0,21.49 0,48 C0,74.51 21.49,96 48,96 C74.51,96 96,74.51 96,48 C96,21.49 74.51,0 48,0 L48,0 Z" id="fb" fill="#303030" sketch:type="MSShapeGroup"></path>
    </g>
</svg>