<?xml version="1.0" encoding="UTF-8" standalone="no"?>
<svg width="96px" height="96px" viewBox="0 0 96 96" version="1.1" xmlns="http://www.w3.org/2000/svg" xmlns:xlink="http://www.w3.org/1999/xlink" xmlns:sketch="http://www.bohemiancoding.com/sketch/ns">
    <!-- Generator: Sketch 3.1.1 (8761) - http://www.bohemiancoding.com/sketch -->
    <title>gplus</title>
    <desc>Created with Sketch.</desc>
    <defs></defs>
    <g id="Page-1" stroke="none" stroke-width="1" fill="none" fill-rule="evenodd" sketch:type="MSPage">
        <path d="M39.11,53.75 C38.85,53.75 38.59,53.76 38.33,53.78 C36.1,53.94 34.06,54.78 32.57,56.12 C31.1,57.45 30.35,59.13 30.46,60.83 C30.68,64.38 34.5,66.47 39.13,66.13 C43.7,65.8 46.74,63.17 46.51,59.62 C46.3,56.28 43.4,53.75 39.11,53.75 L39.11,53.75 Z M70.64,47.95 L63.06,47.95 L63.06,55.53 L58.26,55.53 L58.26,47.95 L50.68,47.95 L50.68,43.15 L58.26,43.15 L58.26,35.57 L63.06,35.57 L63.06,43.15 L70.64,43.15 L70.64,47.95 L70.64,47.95 Z M45.23,68.61 C42.22,70.07 38.97,70.23 37.71,70.23 C37.48,70.23 37.34,70.22 37.31,70.22 L37.07,70.22 C35.11,70.22 25.36,69.77 25.36,60.89 C25.36,52.16 35.98,51.48 39.24,51.48 L39.32,51.48 C37.44,48.97 37.83,46.43 37.83,46.43 C37.67,46.45 37.43,46.46 37.13,46.46 C35.9,46.46 33.54,46.26 31.51,44.95 C29.02,43.35 27.76,40.62 27.76,36.85 C27.76,26.2 39.39,25.77 39.51,25.77 L51.13,25.77 L51.13,26.02 C51.13,27.32 48.8,27.57 47.2,27.78 C46.66,27.86 45.58,27.97 45.27,28.13 C48.22,29.7 48.69,32.17 48.69,35.85 C48.69,40.04 47.05,42.25 45.31,43.81 C44.24,44.77 43.39,45.53 43.39,46.54 C43.39,47.53 44.55,48.56 45.9,49.74 C48.1,51.68 51.13,54.33 51.13,58.79 C51.13,63.4 49.14,66.71 45.23,68.61 L45.23,68.61 Z M48,0 C21.49,0 0,21.49 0,48 C0,74.51 21.49,96 48,96 C74.51,96 96,74.51 96,48 C96,21.49 74.51,0 48,0 L48,0 Z M43.48,34.42 C42.27,30.17 40.32,28.92 37.29,28.92 C36.96,28.92 36.63,28.96 36.32,29.05 C35,29.42 33.96,30.52 33.38,32.14 C32.79,33.8 32.75,35.52 33.26,37.48 C34.18,40.99 36.67,43.53 39.19,43.53 C39.52,43.53 39.84,43.48 40.16,43.39 C42.9,42.62 44.62,38.43 43.48,34.42 L43.48,34.42 Z" id="gplus" fill="#303030" sketch:type="MSShapeGroup"></path>
    </g>
</svg>