<?xml version="1.0" encoding="UTF-8" standalone="no"?>
<svg width="96px" height="96px" viewBox="0 0 96 96" version="1.1" xmlns="http://www.w3.org/2000/svg" xmlns:xlink="http://www.w3.org/1999/xlink" xmlns:sketch="http://www.bohemiancoding.com/sketch/ns">
    <!-- Generator: Sketch 3.1.1 (8761) - http://www.bohemiancoding.com/sketch -->
    <title>tumblr</title>
    <desc>Created with Sketch.</desc>
    <defs></defs>
    <g id="Page-1" stroke="none" stroke-width="1" fill="none" fill-rule="evenodd" sketch:type="MSPage">
        <path d="M60.884,68.7 C58.92,69.64 57.143,70.3 55.554,70.67 C53.962,71.05 52.241,71.24 50.392,71.24 C48.292,71.24 46.437,70.97 44.823,70.43 C43.21,69.89 41.835,69.13 40.693,68.14 C39.554,67.14 38.763,66.09 38.324,64.97 C37.884,63.849 37.666,62.23 37.666,60.099 L37.666,43.8 L32.589,43.8 L32.589,37.22 C34.392,36.63 35.939,35.78 37.225,34.67 C38.511,33.56 39.544,32.23 40.322,30.68 C41.101,29.13 41.636,27.15 41.93,24.75 L48.46,24.75 L48.46,36.5 L59.362,36.5 L59.362,43.8 L48.46,43.8 L48.46,55.72 C48.46,58.41 48.602,60.14 48.886,60.91 C49.167,61.68 49.693,62.29 50.458,62.74 C51.476,63.36 52.638,63.67 53.945,63.67 C56.271,63.67 58.583,62.9 60.884,61.37 L60.884,68.7 L60.884,68.7 Z M48,0 C21.489,0 0,21.49 0,48 C0,74.51 21.489,96 48,96 C74.51,96 96,74.51 96,48 C96,21.49 74.51,0 48,0 L48,0 Z" id="tumblr" fill="#303030" sketch:type="MSShapeGroup"></path>
    </g>
</svg>