<?xml version="1.0" encoding="UTF-8" standalone="no"?>
<svg width="96px" height="96px" viewBox="0 0 96 96" version="1.1" xmlns="http://www.w3.org/2000/svg" xmlns:xlink="http://www.w3.org/1999/xlink" xmlns:sketch="http://www.bohemiancoding.com/sketch/ns">
    <!-- Generator: Sketch 3.1.1 (8761) - http://www.bohemiancoding.com/sketch -->
    <title>tw</title>
    <desc>Created with Sketch.</desc>
    <defs></defs>
    <g id="Page-1" stroke="none" stroke-width="1" fill="none" fill-rule="evenodd" sketch:type="MSPage">
        <path d="M67.52,39.32 C67.54,39.72 67.55,40.13 67.55,40.54 C67.55,53.03 58.04,67.44 40.65,67.44 C35.31,67.44 30.34,65.87 26.16,63.19 C26.89,63.28 27.65,63.32 28.41,63.32 C32.84,63.32 36.92,61.81 40.15,59.28 C36.02,59.2 32.52,56.47 31.32,52.71 C31.9,52.82 32.49,52.88 33.1,52.88 C33.96,52.88 34.8,52.77 35.59,52.55 C31.27,51.68 28.01,47.86 28.01,43.28 L28.01,43.16 C29.28,43.87 30.74,44.29 32.29,44.34 C29.75,42.65 28.08,39.76 28.08,36.47 C28.08,34.74 28.55,33.12 29.36,31.72 C34.03,37.44 40.99,41.21 48.85,41.6 C48.69,40.91 48.61,40.19 48.61,39.45 C48.61,34.22 52.84,29.99 58.06,29.99 C60.78,29.99 63.23,31.14 64.96,32.98 C67.11,32.55 69.14,31.77 70.96,30.68 C70.26,32.89 68.76,34.74 66.81,35.91 C68.72,35.69 70.54,35.18 72.24,34.43 C70.97,36.32 69.37,37.99 67.52,39.32 L67.52,39.32 Z M48,0 C21.48,0 0,21.49 0,48 C0,74.51 21.48,96 48,96 C74.51,96 96,74.51 96,48 C96,21.49 74.51,0 48,0 L48,0 Z" id="tw" fill="#303030" sketch:type="MSShapeGroup"></path>
    </g>
</svg>