<?xml version="1.0" encoding="UTF-8" standalone="no"?>
<svg width="99px" height="105px" viewBox="0 0 99 105" version="1.1" xmlns="http://www.w3.org/2000/svg" xmlns:xlink="http://www.w3.org/1999/xlink" xmlns:sketch="http://www.bohemiancoding.com/sketch/ns">
    <title>Slice 1</title>
    <description>Created with Sketch (http://www.bohemiancoding.com/sketch)</description>
    <defs></defs>
    <g id="Page-1" stroke="none" stroke-width="1" fill="none" fill-rule="evenodd" sketch:type="MSPage">
        <g id="box2" sketch:type="MSLayerGroup" transform="translate(4.000000, 3.000000)">
            <g id="Path-3-+-Path-1-+-Path-2" sketch:type="MSShapeGroup">
                <path d="M90.9029831,22.4774852 L45.666941,-0.199996948 L0,22.4774848" id="Path-3" stroke="#FFFFFF" stroke-width="4"></path>
                <path d="M88.5,78 L89.3291796,76.6583592 L45.3291796,98.6583592 L47.5,100 L47.5,47 L46.6948813,48.3293382 L90.6948813,25.3293382 L88.5,24 L88.5,78 L88.5,78 Z M91.5,21.5233375 L89.3051187,22.6706618 L45.5,45.0915193 L45.5,101.427051 L90.6708204,79.3416408 L91.5,78.927051 L91.5,78 L91.5,24 L91.5,21.5233375 L91.5,21.5233375 Z" id="Path-2" stroke="#FFFFFF" fill="#FFFFFF"></path>
                <path d="M-0.5,78 L-0.5,78.927051 L0.32917961,79.3416408 L45.5,101.427051 L45.5,45.0915193 L1.69488131,22.6706618 L-0.5,21.5233375 L-0.5,24 L-0.5,78 L-0.5,78 Z M0.30511869,25.3293382 L44.3051187,48.3293382 L43.5,47 L43.5,100 L45.6708204,98.6583592 L1.67082039,76.6583592 L2.5,78 L2.5,24 L0.30511869,25.3293382 L0.30511869,25.3293382 Z" id="Path-1" stroke="#FFFFFF" fill="#FFFFFF"></path>
                <rect id="Rectangle-2" fill="#FFFFFF" x="43" y="97" width="4" height="3"></rect>
                <rect id="Rectangle-3" fill="#FFFFFF" x="0" y="24" width="3" height="2"></rect>
                <rect id="Rectangle-4" fill="#FFFFFF" x="88" y="24" width="3" height="2"></rect>
                <path d="M25.5,10.5 L68.5,34.5" id="Line" stroke="#FFFFFF" stroke-width="4" stroke-linecap="square"></path>
            </g>
        </g>
    </g>
</svg>