<?xml version="1.0" encoding="UTF-8" standalone="no"?>
<svg width="162px" height="107px" viewBox="0 0 162 107" version="1.1" xmlns="http://www.w3.org/2000/svg" xmlns:xlink="http://www.w3.org/1999/xlink" xmlns:sketch="http://www.bohemiancoding.com/sketch/ns">
    <title>Slice 1</title>
    <description>Created with Sketch (http://www.bohemiancoding.com/sketch)</description>
    <defs></defs>
    <g id="Page-1" stroke="none" stroke-width="1" fill="none" fill-rule="evenodd" sketch:type="MSPage">
        <g id="vinyl4" sketch:type="MSLayerGroup" transform="translate(2.000000, 2.000000)">
            <g id="Oval-1-+-Shape" sketch:type="MSShapeGroup">
                <path d="M110.429448,100.057143 C137.806508,100.057143 160,77.8781822 160,50.5190476 C160,23.1599131 137.806508,0.980952381 110.429448,0.980952381 C83.0523879,0.980952381 60.8588957,23.1599131 60.8588957,50.5190476 C60.8588957,77.8781822 83.0523879,100.057143 110.429448,100.057143 L110.429448,100.057143 Z M111.108497,67.4841487 C120.109174,67.4841487 127.405664,60.1924356 127.405664,51.1976517 C127.405664,42.2028677 120.109174,34.9111546 111.108497,34.9111546 C102.107819,34.9111546 94.8113287,42.2028677 94.8113287,51.1976517 C94.8113287,60.1924356 102.107819,67.4841487 111.108497,67.4841487 L111.108497,67.4841487 Z M111.108497,52.5548598 C111.858553,52.5548598 112.466594,51.947217 112.466594,51.1976517 C112.466594,50.4480863 111.858553,49.8404436 111.108497,49.8404436 C110.35844,49.8404436 109.750399,50.4480863 109.750399,51.1976517 C109.750399,51.947217 110.35844,52.5548598 111.108497,52.5548598 L111.108497,52.5548598 Z" id="Oval-1" fill="#FFFFFF"></path>
                <path d="M0,102.800437 L104.913315,102.800437 L104.913315,0.1995625 L0,0.1995625 L0,102.800437 L0,102.800437 Z" id="Shape" stroke="#FFFFFF" stroke-width="4" fill="#303030"></path>
            </g>
        </g>
    </g>
</svg>